<?xml version="1.0" encoding="utf-8"?>
<!-- Generator: Adobe Illustrator 24.0.0, SVG Export Plug-In . SVG Version: 6.00 Build 0)  -->
<svg version="1.1" id="Layer_1" xmlns="http://www.w3.org/2000/svg" xmlns:xlink="http://www.w3.org/1999/xlink" x="0px" y="0px"
	 viewBox="0 0 40 512" style="enable-background:new 0 0 40 512;" fill="white" xml:space="preserve">
<g>
	<g>
		<path d="M38.3,245.3c-0.6-0.9-1.7-1.4-3.1-1.3c-1.2,0.1-2.6,0.6-3.8,1.4c-0.5,0.3-0.9,0.7-1.3,1.1c0.8-1.8,1.2-3.6,1-5.3
			c-0.1-1.8-0.8-3.3-1.9-4.3c-1.1-1-2.4-1.2-3.3-0.6c-1.3,0.9-1.2,2.2-1.1,3.4c0.1,1.2,0.2,2.5-0.7,4.2c-1.2-0.3-2.6-0.4-4.1-0.4
			c-1.5,0-2.8,0.1-4,0.4c-0.8-1.7-0.7-3-0.6-4.2c0.1-1.2,0.2-2.5-1.1-3.4c-1-0.7-2.2-0.4-3.3,0.6c-1.1,1-1.8,2.6-1.9,4.3
			c-0.1,1.7,0.2,3.5,1,5.3c-0.4-0.4-0.9-0.8-1.3-1.1c-1.2-0.8-2.6-1.3-3.8-1.4c-1.4-0.1-2.5,0.4-3.1,1.3c-0.6,0.9-0.6,2.1,0,3.4
			c0.5,1.1,1.5,2.2,2.7,3c1.2,0.8,2.4,1.3,3.6,1.4c-0.3,1.8-0.3,3.7-0.1,6c0.2,2,0.6,4,1.2,5.8c-0.2,0.7-0.3,1.5-0.3,2.3
			c0,4.8,3.3,8.8,7.3,8.8c1.4,0,2.8-0.5,4-1.4c1.2,0.9,2.5,1.4,4,1.4c4,0,7.3-3.9,7.3-8.8c0-0.9-0.1-1.6-0.3-2.3
			c0.6-1.8,1-3.8,1.2-5.8c0.2-2.2,0.1-4.3-0.1-6c1.2-0.1,2.4-0.6,3.6-1.4c1.2-0.8,2.2-1.9,2.7-3C39,247.4,38.9,246.2,38.3,245.3z
			 M26.4,239.7c-0.1-1.3-0.1-1.6,0.4-2c0.3-0.2,0.9,0.1,1.2,0.4c0.8,0.7,1.3,1.9,1.4,3.3c0.1,1.5-0.2,3.1-1,4.7
			c-0.8-0.7-1.7-1.2-2.7-1.6C26.6,242.6,26.5,240.9,26.4,239.7z M10.6,241.4c0.1-1.3,0.6-2.5,1.4-3.3c0.4-0.4,0.9-0.6,1.2-0.4
			c0.5,0.3,0.5,0.7,0.4,2c-0.1,1.2-0.2,2.8,0.7,4.8c-1,0.4-1.9,0.9-2.7,1.6C10.8,244.5,10.4,242.9,10.6,241.4z M8.3,251.4
			c-0.9-0.1-2-0.5-3-1.1c-1-0.7-1.8-1.5-2.2-2.4c-0.3-0.7-0.4-1.3-0.1-1.7c0.3-0.4,0.9-0.6,1.6-0.5c0.9,0.1,2,0.5,3,1.1
			c0.7,0.5,1.4,1.1,1.8,1.8C9,249.4,8.6,250.4,8.3,251.4z M30.5,259c-0.1,1.4-0.3,2.7-0.7,3.9c-0.5-0.5-1-1-1.7-1.3
			c-0.4-0.2-0.9,0-1.1,0.4c-0.2,0.4,0,0.9,0.4,1.1c0.9,0.4,1.6,1.1,1.9,2.1c0.2,0.6,0.3,1.3,0.3,2c0,3.9-2.5,7.1-5.6,7.1
			c-1.2,0-2.4-0.5-3.4-1.4c-0.3-0.3-0.8-0.3-1.1,0c-1,0.9-2.2,1.4-3.4,1.4c-3.1,0-5.6-3.2-5.6-7.1c0-0.8,0.1-1.5,0.3-2c0,0,0,0,0,0
			c0.7-1.8,2.3-2.6,5.3-2.6c0.7,0,1.3,0,1.8,0.1c1.4,0.2,2.9,0.2,4.3,0c0.3-0.1,0.7-0.1,1.1-0.1c0.5,0,0.8-0.4,0.8-0.9
			s-0.4-0.8-0.9-0.8c-0.4,0-0.9,0.1-1.3,0.1c-1.3,0.2-2.5,0.2-3.8,0c-0.6-0.1-1.3-0.1-2.1-0.1c-1.7,0-3,0.2-4.1,0.8
			c-0.7,0.3-1.3,0.7-1.7,1.3c-0.3-1.3-0.6-2.6-0.7-3.9c-0.2-2.5-0.1-4.7,0.3-6.5c0.3-1.3,0.8-2.5,1.4-3.4c0.2-0.4,0.5-0.7,0.8-1
			c1-1,2.2-1.8,3.8-2.2c1.2-0.4,2.6-0.5,4.2-0.5c1.6,0,3.1,0.2,4.3,0.6c1.5,0.5,2.8,1.2,3.8,2.2c0.1,0.1,0.2,0.2,0.3,0.4
			c0.2,0.2,0.3,0.4,0.5,0.7c0.6,0.9,1.1,2.1,1.4,3.4C30.6,254.2,30.7,256.4,30.5,259z M36.9,247.9c-0.4,0.8-1.2,1.7-2.2,2.4
			c-1,0.7-2.1,1.1-3,1.1c-0.3-1.1-0.7-2-1.2-2.8c0.4-0.7,1.1-1.3,1.8-1.8c1-0.7,2.1-1.1,3-1.1c0.8-0.1,1.4,0.1,1.6,0.5
			C37.2,246.6,37.2,247.2,36.9,247.9z"/>
	</g>
</g>
<g>
	<g>
		<path d="M25.7,261c-0.1,0-0.2,0-0.3,0c-0.5,0-0.9,0.3-0.9,0.7c0,0.5,0.3,0.9,0.7,0.9c0.1,0,0.1,0,0.2,0c0,0,0.1,0,0.1,0
			c0.4,0,0.8-0.3,0.8-0.7C26.5,261.4,26.1,261,25.7,261z"/>
	</g>
</g>
<g>
	<g>
		<path d="M15.7,264.6c-1.4,0-2.6,1.2-2.6,2.6c0,1.4,1.2,2.6,2.6,2.6s2.6-1.2,2.6-2.6C18.3,265.7,17.1,264.6,15.7,264.6z
			 M15.7,268.1c-0.5,0-0.9-0.4-0.9-0.9c0-0.5,0.4-0.9,0.9-0.9s0.9,0.4,0.9,0.9C16.6,267.7,16.2,268.1,15.7,268.1z"/>
	</g>
</g>
<g>
	<g>
		<path d="M24.3,264.6c-1.4,0-2.6,1.2-2.6,2.6c0,1.4,1.2,2.6,2.6,2.6c1.4,0,2.6-1.2,2.6-2.6C26.9,265.7,25.7,264.6,24.3,264.6z
			 M24.3,268.1c-0.5,0-0.9-0.4-0.9-0.9c0-0.5,0.4-0.9,0.9-0.9c0.5,0,0.9,0.4,0.9,0.9C25.3,267.7,24.8,268.1,24.3,268.1z"/>
	</g>
</g>
<g>
	<g>
		<path d="M13.7,254.3c-0.5,0-0.8,0.4-0.8,0.8v0.5c0,0.5,0.4,0.8,0.8,0.8s0.8-0.4,0.8-0.8v-0.5C14.6,254.6,14.2,254.3,13.7,254.3z"
			/>
	</g>
</g>
<g>
	<g>
		<path d="M26.3,254.3c-0.5,0-0.8,0.4-0.8,0.8v0.5c0,0.5,0.4,0.8,0.8,0.8c0.5,0,0.8-0.4,0.8-0.8v-0.5
			C27.1,254.6,26.7,254.3,26.3,254.3z"/>
	</g>
</g>
</svg>
